<?xml version="1.0" encoding="UTF-8"?><svg id="Capa_1" xmlns="http://www.w3.org/2000/svg" viewBox="0 0 337.42 122.49"><defs><style>.cls-1{fill:#0b8ff6;}</style></defs><path class="cls-1" d="M115.06,45.34h6.8v31.81h-6.8v-31.81Z"/><path class="cls-1" d="M126.28,54.02h6.23v3.51h.44c.93-2.52,2.94-4.26,7.62-3.76v5.43c-4.55-.64-7.8.57-7.8,6.16v11.77h-6.49v-23.13Z"/><path class="cls-1" d="M153.56,53.49c7.16,0,12.44,4.11,12.44,12.11s-5.28,12.08-12.44,12.08-12.41-4.11-12.41-12.08,5.26-12.11,12.41-12.11ZM153.56,72.95c3.56,0,5.85-2.54,5.85-7.36s-2.3-7.36-5.85-7.36-5.83,2.54-5.83,7.36,2.3,7.36,5.83,7.36Z"/><path class="cls-1" d="M168.95,54.02h6.23v2.72h.44c.77-1.22,2.63-3.16,6.91-3.16,5.26,0,8.57,2.94,8.57,8.37v15.2h-6.52v-14.82c0-2.65-1.52-3.95-3.98-3.95-2.78,0-5.17,1.55-5.17,5.46v13.32h-6.49v-23.13Z"/><path class="cls-1" d="M209.7,44.81c9.56,0,13.72,5.92,14,11.16v.66h-6.43c-.2-3-2.1-6.72-7.51-6.72s-8.99,4.46-8.99,11.33,3.42,11.31,8.99,11.31,7.29-3.89,7.64-6.98h6.41v.66c-.49,5.24-4.48,11.44-14.12,11.44s-15.73-6.52-15.73-16.43,5.94-16.43,15.73-16.43Z"/><path class="cls-1" d="M226.49,45.34h6.49v31.81h-6.49v-31.81Z"/><path class="cls-1" d="M237.18,60.98v-.66c.51-4.18,4.4-6.83,10.36-6.83s10.01,2.65,10.01,8.81v9.14c0,2.25.13,3.8.66,5.04v.66h-6.12c-.22-.71-.33-1.48-.33-2.52h-.44c-1.13,1.5-2.94,2.92-6.85,2.92-4.93,0-8.61-2.7-8.61-7.09,0-4.62,3.56-6.58,8.02-7.05l5.26-.51c1.55-.15,2.32-.64,2.32-1.94,0-1.94-1.46-3-4.04-3s-4.26,1.04-4.35,3.03h-5.88ZM246.05,73.15c2.43,0,5.35-1.37,5.35-5.59v-1.37h-.44c-.71.38-1.5.57-2.92.73l-2.5.26c-1.92.2-3.34,1.02-3.34,2.96s1.44,3,3.84,3Z"/><path class="cls-1" d="M258.91,54.02h5.83l3.34,15.53h.44l4.33-15.53h5.5l4.33,15.53h.44l3.34-15.53h5.77v.66l-5.41,22.47h-6.8l-4.22-15.2h-.44l-4.22,15.2h-6.83l-5.39-22.47v-.66Z"/><path d="M93.67,34.12c-2.01,0-3.87,1.04-4.93,2.75l-11.34,16.83c-.37.55-.22,1.3.34,1.67.45.3,1.04.26,1.45-.09l11.16-9.68c.19-.17.47-.15.64.04.08.08.12.19.12.31v30.31c0,.25-.2.45-.45.45-.13,0-.26-.06-.35-.16l-33.74-40.39c-1.1-1.3-2.71-2.04-4.41-2.05h-1.18c-3.19,0-5.78,2.59-5.78,5.78v42.69c0,3.19,2.59,5.78,5.78,5.78,2.01,0,3.87-1.04,4.93-2.75l11.34-16.83c.37-.55.22-1.3-.34-1.67-.45-.3-1.04-.26-1.45.09l-11.16,9.68c-.19.17-.47.15-.64-.04-.08-.08-.12-.19-.11-.31v-30.32c0-.25.2-.45.45-.45.13,0,.26.06.35.16l33.73,40.39c1.1,1.3,2.71,2.04,4.41,2.05h1.18c3.19,0,5.78-2.58,5.78-5.78v-42.69c0-3.19-2.59-5.78-5.78-5.78h0Z"/></svg>