<?xml version="1.0" encoding="UTF-8"?><svg id="Capa_1" xmlns="http://www.w3.org/2000/svg" viewBox="0 0 125.79 116.04"><path d="M84.24,30.9c-2.01,0-3.87,1.04-4.93,2.75l-11.34,16.83c-.37.55-.22,1.3.34,1.67.45.3,1.04.26,1.45-.09l11.16-9.68c.19-.17.47-.15.64.04.08.08.12.19.12.31v30.31c0,.25-.2.45-.45.45-.13,0-.26-.06-.35-.16l-33.74-40.39c-1.1-1.3-2.71-2.04-4.41-2.05h-1.18c-3.19,0-5.78,2.59-5.78,5.78v42.69c0,3.19,2.59,5.78,5.78,5.78,2.01,0,3.87-1.04,4.93-2.75l11.34-16.83c.37-.55.22-1.3-.34-1.67-.45-.3-1.04-.26-1.45.09l-11.16,9.68c-.19.17-.47.15-.64-.04-.08-.08-.12-.19-.11-.31v-30.32c0-.25.2-.45.45-.45.13,0,.26.06.35.16l33.73,40.39c1.1,1.3,2.71,2.04,4.41,2.05h1.18c3.19,0,5.78-2.58,5.78-5.78v-42.69c0-3.19-2.59-5.78-5.78-5.78h0Z"/></svg>